<svg width="44" height="44" viewBox="0 0 44 44" xmlns="http://www.w3.org/2000/svg" xmlns:xlink="http://www.w3.org/1999/xlink">
    <defs>
        <path d="M0 0h44v44H12C5.373 44 0 38.627 0 32V0z" id="9q4qntb0ra"/>
        <path id="db2zvm67jc" d="M0 0h9.987v9.395H0z"/>
    </defs>
    <g fill="none" fill-rule="evenodd">
        <mask id="x1m0sq9pzb" fill="#fff">
            <use xlink:href="#9q4qntb0ra"/>
        </mask>
        <use fill-opacity=".8" fill="#000" xlink:href="#9q4qntb0ra"/>
        <g mask="url(#x1m0sq9pzb)">
            <g transform="translate(28.513 17.286)">
                <mask id="snbr7w4oed" fill="#fff">
                    <use xlink:href="#db2zvm67jc"/>
                </mask>
                <path d="m7.994 6.263-.16.097a4.66 4.66 0 0 1-2.38.726c-1.634 0-2.71-.977-2.716-2.386-.005-1.409 1.139-2.403 2.677-2.406.829.012 1.64.243 2.351.669l.157.086V1.79l-.069-.025a6.451 6.451 0 0 0-2.431-.547A4.148 4.148 0 0 0 2.61 2.226a3.421 3.421 0 0 0-1.116 2.562c.02.832.353 1.626.931 2.224A3.91 3.91 0 0 0 5.363 8.15a5.456 5.456 0 0 0 2.563-.589l.059-.028.009-1.27zM0 9.395h9.987V0H0v9.395z" fill="#FFF" mask="url(#snbr7w4oed)"/>
            </g>
            <path d="M24.62 23.515c0-.854-.568-1.503-1.477-1.751.228-.109.427-.269.584-.467.196-.264.297-.588.285-.917a1.627 1.627 0 0 0-.544-1.224 2.478 2.478 0 0 0-1.708-.555h-2.127v6.77h2.497c.89 0 1.517-.242 1.919-.6a1.661 1.661 0 0 0 .572-1.256zm-7.614 3.166h9.987v-9.395h-9.987v9.395z" fill="#FFF"/>
            <path d="M23.377 23.381a.79.79 0 0 1-.27.623 1.644 1.644 0 0 1-1.116.311h-1.14v-1.854h1.102c.387-.026.773.067 1.105.268a.751.751 0 0 1 .319.652M22.443 21.169a.786.786 0 0 0 .322-.7.728.728 0 0 0-.228-.57 1.313 1.313 0 0 0-.883-.245h-.817v1.751h.57c.36.027.722-.055 1.036-.236M13.113 23.515c0-.854-.569-1.503-1.475-1.751.223-.111.417-.27.57-.467.195-.265.295-.588.284-.917a1.647 1.647 0 0 0-.543-1.224 2.492 2.492 0 0 0-1.709-.555H8.111v6.77h2.499c.892 0 1.515-.242 1.919-.6a1.665 1.665 0 0 0 .584-1.256zM5.5 26.681h9.987v-9.395H5.5v9.395z" fill="#FFF"/>
            <path d="M10.938 21.169a.789.789 0 0 0 .333-.7.705.705 0 0 0-.228-.57 1.31 1.31 0 0 0-.882-.245h-.814v1.751h.569c.356.023.712-.059 1.022-.236M11.539 22.746a1.896 1.896 0 0 0-1.105-.268H9.333v1.848h1.138c.399.035.796-.075 1.119-.31a.814.814 0 0 0 .27-.624.752.752 0 0 0-.321-.646" fill="#FFF"/>
        </g>
    </g>
</svg>
