<svg width="44" height="44" viewBox="0 0 44 44" xmlns="http://www.w3.org/2000/svg" xmlns:xlink="http://www.w3.org/1999/xlink">
    <defs>
        <path d="M0 0h44v44H12C5.373 44 0 38.627 0 32V0z" id="dx4i8dzfia"/>
    </defs>
    <g fill="none" fill-rule="evenodd">
        <mask id="t97bbd2yhb" fill="#fff">
            <use xlink:href="#dx4i8dzfia"/>
        </mask>
        <use fill-opacity=".8" fill="#000" xlink:href="#dx4i8dzfia"/>
        <path d="M37.027 16.204v-.002l-.16-.03-.13-.09-.089-.14-.032-.18.032-.18.088-.139.13-.09.161-.03.158.03.13.09.089.14.033.18-.033.18-.089.139-.13.09-.158.032zm0-1.015-.219.038-.184.113-.072.081-.054.099-.035.113-.013.13.013.128.035.114.054.098.072.082.184.112.22.039.217-.04.183-.111.072-.082.055-.098.035-.114.012-.129-.012-.129-.035-.113-.055-.099-.072-.081-.183-.113-.218-.038zm.022.517h-.118v-.149h.093l.078.01.029.021.011.038-.024.065-.07.015zm.235-.067-.018-.088-.05-.058-.08-.03-.106-.01h-.23v.617h.131v-.26h.063l.142.26h.157l-.158-.27.105-.04.032-.049.012-.072zm-5.873 3.315-.27.013-.262.04-.252.065-.243.089-.23.11-.217.133-.203.151-.187.17-.17.188-.152.202-.132.218-.111.23-.089.242-.065.253-.04.262-.013.27.013.269.04.262.065.252.089.242.11.23.133.218.151.203.17.187.188.17.203.152.217.132.23.111.243.089.252.065.262.04.27.013.269-.013.262-.04.252-.065.242-.089.23-.111.218-.132.203-.152.187-.17.17-.187.152-.203.132-.217.111-.23.089-.243.065-.252.04-.262.013-.27-.013-.27-.04-.261-.065-.253-.089-.242-.11-.23-.133-.218-.152-.202-.17-.187-.187-.17-.203-.152-.217-.132-.23-.111-.243-.09-.252-.064-.262-.04-.27-.013zm0 5.93-.337-.017-.327-.05-.316-.081-.303-.11-.288-.14-.271-.165-.254-.19-.234-.212-.213-.234-.19-.254-.165-.271-.138-.288-.111-.303-.081-.316-.05-.327-.017-.337.017-.337.05-.327.08-.315.112-.303.138-.288.165-.272.19-.253.213-.234.234-.213.254-.19.271-.165.288-.138.303-.111.316-.081.327-.05.337-.017.336.017.327.05.316.08.303.112.288.138.272.165.253.19.234.213.213.234.19.253.164.272.14.288.11.303.081.315.05.327.017.337-.017.337-.05.327-.081.316-.11.303-.14.288-.165.271-.19.254-.212.234-.234.213-.253.19-.272.164-.288.14-.303.11-.316.081-.327.05-.336.017zm-6.51-2.262.002.004-.119-.184-.127-.161-.27-.26-.272-.19-.256-.132-.404-.155-.05-.034.095-.029.365-.099.368-.18.18-.125.173-.153.165-.183.155-.215-.064.526-.02.537.02.522.06.51zm-3.622-2.376h-1.896v-1.95h1.869l.122.012.126.033.145.066.144.11.126.164.089.232.033.309-.032.311-.086.242-.122.18-.139.128-.14.084-.12.05-.12.029zm0 4.768h-1.896v-1.95h1.869l.122.012.126.033.145.066.144.11.126.164.089.232.033.309-.032.311-.086.242-.122.18-.139.128-.14.084-.12.05-.12.029zM31.41 15l-.65.031-.631.093-.611.151-.587.207-.56.259-.53.308-.497.354-.462.398-.453.473-.405.516-.353.554-.297.592.021-.489-.03-.493-.09-.442-.14-.396-.186-.351-.224-.31-.255-.268-.28-.232-.298-.197-.31-.164-.314-.135-.615-.19-.555-.098-.441-.029h-5.472v12.95h5.635l.149-.004.392-.042.556-.13.313-.112.323-.153.324-.2.313-.252.293-.31.262-.375.222-.446.171-.523.11-.606.04-.695-.008-.232.001.004.198.448.229.43.259.411.288.39.315.367.341.342.365.318.388.29.41.261.428.231.448.2.464.167.48.132.493.097.506.059.517.02.673-.034.655-.1.631-.163.605-.221.576-.278.544-.33.507-.379.468-.425.425-.468.38-.507.33-.544.277-.576.222-.605.162-.632.1-.654.034-.674-.034-.673-.1-.655-.162-.631-.222-.605-.277-.577-.33-.543-.38-.507-.425-.468-.468-.425-.507-.38-.544-.33-.576-.277-.605-.222-.631-.162-.655-.1-.673-.034zm-19.56 8.269v4.822h3.576V15.142h-3.576v4.876H9.576v-4.876H6v12.95h3.576v-4.823h2.275z" fill="#FFF" mask="url(#t97bbd2yhb)"/>
    </g>
</svg>
