<?xml version="1.0" standalone="no"?>
<!DOCTYPE svg PUBLIC "-//W3C//DTD SVG 20010904//EN"
 "http://www.w3.org/TR/2001/REC-SVG-20010904/DTD/svg10.dtd">
<svg version="1.0" xmlns="http://www.w3.org/2000/svg"
 width="84.000000pt" height="84.000000pt" viewBox="0 0 84.000000 84.000000"
 preserveAspectRatio="xMidYMid meet">
<metadata>
Created by potrace 1.14, written by Peter Selinger 2001-2017
</metadata>
<g transform="translate(0.000000,84.000000) scale(0.100000,-0.100000)"
fill="#000000" stroke="none">
<path d="M639 823 c0 -10 -2 -26 -4 -35 -2 -9 -6 -54 -10 -100 -3 -46 -8 -90
-10 -98 -2 -8 -7 -47 -10 -85 -3 -39 -8 -84 -9 -100 -2 -17 -7 -63 -11 -103
-10 -100 -28 -109 -39 -17 -2 22 -10 72 -16 110 -13 84 -16 105 -26 170 -5 28
-9 53 -10 58 -1 4 -2 15 -3 26 -1 16 -9 19 -70 18 l-69 0 -11 -71 c-6 -39 -17
-114 -25 -166 -8 -52 -18 -113 -21 -135 -21 -141 -30 -125 -60 100 -2 17 -9
71 -15 120 -15 119 -18 133 -24 144 -6 9 -150 10 -159 1 -3 -3 3 -41 14 -85
11 -44 22 -96 25 -115 3 -19 8 -38 10 -41 2 -3 6 -21 9 -40 3 -19 10 -50 15
-69 5 -19 11 -46 14 -60 2 -14 14 -65 25 -115 12 -50 23 -101 26 -114 6 -22 9
-23 58 -17 29 3 66 6 82 6 l31 0 27 183 c16 100 31 194 33 210 6 31 23 36 25
7 1 -11 2 -23 3 -27 7 -30 16 -86 22 -128 3 -27 7 -57 9 -65 2 -8 8 -50 15
-92 l13 -78 86 6 c47 4 87 7 88 8 1 1 5 17 8 36 3 19 7 46 10 60 3 14 7 41 10
60 3 19 8 46 10 60 12 59 16 78 25 135 12 73 14 86 45 255 13 74 27 150 30
168 l5 32 -85 0 c-74 0 -85 -2 -86 -17z"/>
</g>
</svg>
